<mxfile host="Electron" agent="Mozilla/5.0 (Windows NT 10.0; Win64; x64) AppleWebKit/537.36 (KHTML, like Gecko) draw.io/24.7.17 Chrome/128.0.6613.36 Electron/32.0.1 Safari/537.36" version="24.7.17">
  <diagram name="第 1 页" id="kwIlqyo365KaIOz3u9Rj">
    <mxGraphModel dx="479" dy="648" grid="1" gridSize="10" guides="1" tooltips="1" connect="1" arrows="1" fold="1" page="1" pageScale="1" pageWidth="827" pageHeight="1169" math="0" shadow="0">
      <root>
        <mxCell id="0" />
        <mxCell id="1" parent="0" />
        <mxCell id="-krohJ5BKpSlDHkNPbzx-1" value="Rectangle" style="swimlane;fontStyle=0;childLayout=stackLayout;horizontal=1;startSize=30;horizontalStack=0;resizeParent=1;resizeParentMax=0;resizeLast=0;collapsible=1;marginBottom=0;whiteSpace=wrap;html=1;" vertex="1" parent="1">
          <mxGeometry x="110" y="100" width="270" height="220" as="geometry" />
        </mxCell>
        <mxCell id="-krohJ5BKpSlDHkNPbzx-2" value="&lt;div&gt;- width: double&amp;nbsp; &amp;nbsp; &amp;nbsp; &amp;nbsp; &amp;nbsp; &amp;nbsp; &amp;nbsp; &amp;nbsp; &amp;nbsp;&lt;/div&gt;&lt;div&gt;- height: double&amp;nbsp;&lt;/div&gt;" style="text;strokeColor=none;fillColor=none;align=left;verticalAlign=middle;spacingLeft=4;spacingRight=4;overflow=hidden;points=[[0,0.5],[1,0.5]];portConstraint=eastwest;rotatable=0;whiteSpace=wrap;html=1;" vertex="1" parent="-krohJ5BKpSlDHkNPbzx-1">
          <mxGeometry y="30" width="270" height="40" as="geometry" />
        </mxCell>
        <mxCell id="-krohJ5BKpSlDHkNPbzx-3" value="&lt;div&gt;+ Rectangle(width: double, height: double)&amp;nbsp;&lt;/div&gt;&lt;div&gt;+ getWidth(): double&lt;/div&gt;&lt;div&gt;+ getHeight(): double&lt;/div&gt;&lt;div&gt;+ setWidth(width: double): void&lt;/div&gt;&lt;div&gt;+ setHeight(height: double): void&lt;/div&gt;&lt;div&gt;+ getArea(): double&lt;/div&gt;&lt;div&gt;+ getPerimeter(): double&lt;/div&gt;" style="text;strokeColor=none;fillColor=none;align=left;verticalAlign=middle;spacingLeft=4;spacingRight=4;overflow=hidden;points=[[0,0.5],[1,0.5]];portConstraint=eastwest;rotatable=0;whiteSpace=wrap;html=1;" vertex="1" parent="-krohJ5BKpSlDHkNPbzx-1">
          <mxGeometry y="70" width="270" height="150" as="geometry" />
        </mxCell>
        <mxCell id="-krohJ5BKpSlDHkNPbzx-6" value="" style="endArrow=none;dashed=1;html=1;dashPattern=1 3;strokeWidth=2;rounded=0;exitX=1.004;exitY=0.009;exitDx=0;exitDy=0;exitPerimeter=0;entryX=0.003;entryY=0.015;entryDx=0;entryDy=0;entryPerimeter=0;" edge="1" parent="-krohJ5BKpSlDHkNPbzx-1" source="-krohJ5BKpSlDHkNPbzx-3" target="-krohJ5BKpSlDHkNPbzx-3">
          <mxGeometry width="50" height="50" relative="1" as="geometry">
            <mxPoint x="-30" y="90" as="sourcePoint" />
            <mxPoint x="20" y="40" as="targetPoint" />
          </mxGeometry>
        </mxCell>
      </root>
    </mxGraphModel>
  </diagram>
</mxfile>
